<?xml version="1.0" standalone="no"?><!DOCTYPE svg PUBLIC "-//W3C//DTD SVG 1.1//EN" "http://www.w3.org/Graphics/SVG/1.1/DTD/svg11.dtd"><svg t="1525947399410" class="icon" style="" viewBox="0 0 1160 1024" version="1.1" xmlns="http://www.w3.org/2000/svg" p-id="9215" xmlns:xlink="http://www.w3.org/1999/xlink" width="36.25" height="32"><defs><style type="text/css"></style></defs><path d="M68.266667 136.533333h1024c37.546667 0 68.266667-30.72 68.266666-68.266666s-30.72-68.266667-68.266666-68.266667H68.266667C30.72 0 0 30.72 0 68.266667s30.72 68.266667 68.266667 68.266666z m1024 307.2H68.266667c-37.546667 0-68.266667 30.72-68.266667 68.266667s30.72 68.266667 68.266667 68.266667h1024c37.546667 0 68.266667-30.72 68.266666-68.266667s-30.72-68.266667-68.266666-68.266667z m0 443.733334H68.266667c-37.546667 0-68.266667 30.72-68.266667 68.266666s30.72 68.266667 68.266667 68.266667h1024c37.546667 0 68.266667-30.72 68.266666-68.266667s-30.72-68.266667-68.266666-68.266666z" p-id="9216" fill="#7A797B"></path></svg>