<svg viewBox="0 0 1024 1024" version="1.1" xmlns="http://www.w3.org/2000/svg" xmlns:xlink="http://www.w3.org/1999/xlink" width="32" height="32"><path d="M810.337 502.14v309.009c0 14.427-5.010 26.626-15.027 36.646-10.019 10.019-22.244 15.029-36.648 15.029h-515.172c-14.428 0-26.626-5.010-36.645-15.029s-15.029-22.218-15.029-36.646v-309.009c0-14.402 5.010-26.627 15.029-36.646 10.018-10.019 22.217-15.028 36.645-15.028h16.906v-102.844c0-65.725 23.62-122.231 70.909-169.519 47.264-47.29 103.847-70.935 169.773-70.935 65.9 0 122.405 23.645 169.545 70.935 47.114 47.289 70.684 103.796 70.684 169.519v102.845h17.358c14.403 0 26.626 5.009 36.646 15.029 10.016 10.017 15.026 22.241 15.026 36.644zM363.717 450.467h274.722v-102.844c0-37.873-13.477-70.282-40.402-97.208-26.925-26.926-59.336-40.401-97.209-40.401-37.872 0-70.208 13.475-96.959 40.401-26.775 26.926-40.15 59.336-40.15 97.208l-0.001 102.844z" fill="#7A797B"></path></svg>